# xmcd
#
# Track frame offsets:
#	150
#	9075
#	22093
#	32938
#	45328
#	59463
#	65044
#	76018
#	86990
#	100756
#	110261
#	120922
#	131370
#	144004
#	156708
#	164679
#	175179
#	188211
#	197650
#	213934
#	225873
#	236332
#	246563
#	257261
#	270720
#	283291
#	293660
#
# Disc length: 4116 seconds
#
# Revision: 1
# Processed by: cddbd v1.5.2PL0 Copyright (c) Steve Scherf et al.
# Submitted via: audiograbber 1.83.01
#
DISCID=7210121b
DTITLE=Ronnie Prophet - Live!
DYEAR=2004
DGENRE=Country
TTITLE0=The Most Beautiful Girl in the World
TTITLE1=He Stopped Loving Her Today
TTITLE2=Countrifried
TTITLE3=You Oughta Hear Me Cry
TTITLE4=Daytime Friends and Nighttime Lovers
TTITLE5=May The Bird Of Paradise Fly Up Your Nose
TTITLE6=Amanda
TTITLE7=Big Big World
TTITLE8=Betty,1959
TTITLE9=Good Ol' Boys
TTITLE10=Everyday I Have To Cry Some
TTITLE11=A Fool Such As I
TTITLE12=There's Girls,  and There's Women and There's Ladies
TTITLE13=Wild Side of Life
TTITLE14=I Remember You
TTITLE15=It's All Right
TTITLE16=Lord, Mr. Ford
TTITLE17=Midnight Rider
TTITLE18=Rock and Roll Medley
TTITLE19=That Silver Haired Daddy of Mine
TTITLE20=Gone
TTITLE21=She Can't Say That Anymore
TTITLE22=Orange Blossom Special
TTITLE23=Too Old To Play Cowboys
TTITLE24=Tennessee River
TTITLE25=Stay All Night, Stay A Little Longer
TTITLE26=Smokey Mountain Rain
EXTD=
EXTT0=
EXTT1=
EXTT2=
EXTT3=
EXTT4=
EXTT5=
EXTT6=
EXTT7=
EXTT8=
EXTT9=
EXTT10=
EXTT11=
EXTT12=
EXTT13=
EXTT14=
EXTT15=
EXTT16=
EXTT17=
EXTT18=
EXTT19=
EXTT20=
EXTT21=
EXTT22=
EXTT23=
EXTT24=
EXTT25=
EXTT26=
PLAYORDER=
